# xmcd
#
# Track frame offsets: 
#        150
#        9810
#        22232
#        40302
#        55017
#        65217
#        75537
#        84500
#        102780
#        115915
#        128772
#        142150
#        155257
#        169332
#        186367
#        195930
#        215777
#        230780
#        242230
#        259092
#
# Disc length: 3503 seconds
#
# Revision: 2
# Processed by: cddbd v1.5.2PL0 Copyright (c) Steve Scherf et al.
# Submitted via: ExactAudioCopy v0.99pb5
#
DISCID=1c0dad14
DTITLE=Gail Davies - Greatest Hits
DYEAR=1998
DGENRE=Country
TTITLE0=Waiting Here For You
TTITLE1=Tell Me Why
TTITLE2=Jagged Edge of a Broken Heart
TTITLE3=Someone is Looking For Someone Like You
TTITLE4=I'll Be There
TTITLE5=It's A Lovely, Lovely World
TTITLE6=Blue Heartache
TTITLE7=Grandma's Song
TTITLE8=Bucket To The South
TTITLE9=I'm Hungry, I'm Tired
TTITLE10=You Turn Me On I'm A Radio
TTITLE11=Boys Like You
TTITLE12=You're A Hard Dog
TTITLE13=Not A Day Goes By
TTITLE14=Singing The Blues
TTITLE15=Kentucky
TTITLE16=Unwed Fathers
TTITLE17=What Can I Say
TTITLE18=Round The Clock Lovin'
TTITLE19=Mama I'm Sick
EXTD=
EXTT0=
EXTT1=
EXTT2=
EXTT3=
EXTT4=
EXTT5=
EXTT6=
EXTT7=
EXTT8=
EXTT9=
EXTT10=
EXTT11=
EXTT12=
EXTT13=
EXTT14=
EXTT15=
EXTT16=
EXTT17=
EXTT18=
EXTT19=
PLAYORDER=
